<svg xmlns="http://www.w3.org/2000/svg" width="567" height="220" viewBox="0 0 567 220">
<g>
<path d="M 0.00 0.00 L 567.00 0.00 L 567.00 220.00 L 0.00 220.00 ZM 203.52 164.35 C204.02,166.86 204.40,167.12 206.76,166.52 C208.23,166.15 211.00,165.65 212.91,165.41 C214.82,165.16 217.08,164.35 217.94,163.60 C219.54,162.21 225.57,158.94 226.49,158.98 C230.54,159.14 232.06,158.80 231.93,157.75 C231.57,155.02 232.13,154.12 235.39,152.20 C237.55,150.92 239.20,148.91 239.95,146.65 C240.74,144.26 241.58,143.29 242.54,143.65 C243.87,144.17 244.42,143.33 246.58,137.50 C246.98,136.40 247.21,134.88 247.09,134.13 C246.64,131.48 249.18,127.12 251.35,126.81 C252.68,126.62 253.45,125.84 253.36,124.75 C253.19,122.55 253.89,122.57 256.90,124.89 C259.19,126.65 259.22,126.84 257.65,129.09 C256.74,130.39 256.00,132.43 256.00,133.63 C256.00,135.67 260.35,140.28 263.16,141.22 C263.94,141.48 264.31,143.27 264.16,146.14 C263.95,150.13 264.22,150.78 266.52,151.83 C268.41,152.69 269.66,152.72 271.14,151.93 C272.44,151.23 279.55,150.95 291.06,151.14 C307.90,151.43 309.04,151.33 310.42,149.47 C314.55,143.90 308.21,140.58 303.70,145.95 L 301.13 149.00 L 290.12 149.00 C283.87,149.00 278.85,148.57 278.50,148.00 C278.16,147.45 276.23,147.00 274.22,147.00 L 270.55 147.00 L 272.90 145.36 C274.82,144.02 276.85,143.82 284.18,144.30 C292.15,144.82 293.33,144.67 295.06,142.94 C297.27,140.73 297.43,139.67 295.96,136.93 C294.90,134.95 291.00,134.21 291.00,136.00 C291.00,136.55 288.80,137.00 286.12,137.00 C282.12,137.00 281.14,136.65 280.73,135.06 C280.09,132.64 282.85,130.00 286.00,130.00 C290.67,130.00 293.76,124.70 290.61,122.09 C289.51,121.18 288.56,121.59 286.08,124.07 C283.65,126.50 282.65,126.95 281.60,126.08 C280.64,125.29 279.45,125.26 277.56,125.98 C274.19,127.26 271.70,127.30 272.47,126.05 C273.53,124.33 268.53,125.93 267.21,127.73 C266.09,129.26 265.80,129.29 264.99,128.00 C264.39,127.03 264.45,126.37 265.15,126.13 C265.87,125.88 265.82,125.51 265.01,125.00 C264.21,124.51 264.02,123.17 264.47,121.12 L 265.16 118.00 L 281.97 118.00 C297.01,118.00 298.87,117.82 299.59,116.25 C301.66,111.71 300.21,108.40 295.76,107.51 C289.45,106.24 289.26,106.10 289.79,103.32 C290.50,99.59 287.42,97.31 284.82,99.66 C283.13,101.19 282.87,101.19 281.17,99.65 C278.54,97.28 275.28,97.56 274.37,100.25 C273.95,101.49 273.69,102.84 273.80,103.25 C273.91,103.66 273.42,104.00 272.71,104.00 C271.98,104.00 271.32,105.39 271.18,107.21 C270.92,110.63 269.65,111.96 266.64,111.98 C265.36,112.00 264.97,111.51 265.39,110.42 C265.73,109.55 266.00,108.01 266.00,106.99 C266.00,105.97 266.71,104.44 267.57,103.57 C268.78,102.36 268.83,102.00 267.79,102.00 C267.05,102.00 265.81,101.12 265.04,100.05 C264.27,98.98 263.23,98.36 262.74,98.66 C261.36,99.51 264.81,93.23 267.30,90.35 C269.86,87.39 274.92,84.48 276.83,84.86 C277.56,85.00 278.39,84.23 278.68,83.13 C279.20,81.13 285.40,78.00 288.82,78.00 C289.80,78.00 291.10,77.50 291.70,76.90 C292.84,75.76 297.06,76.00 309.00,77.91 C319.45,79.57 319.97,79.76 322.96,82.95 C324.52,84.63 326.30,86.00 326.90,86.00 C327.51,86.00 328.00,86.81 328.00,87.80 C328.00,88.79 328.56,90.17 329.25,90.88 C330.25,91.90 329.94,92.58 327.67,94.33 C324.95,96.42 320.38,100.76 317.41,104.08 C316.64,104.96 316.00,106.42 316.00,107.33 C316.00,108.25 315.56,109.00 315.03,109.00 C314.50,109.00 314.30,109.63 314.60,110.40 C314.89,111.17 314.66,112.09 314.07,112.46 C313.48,112.82 313.00,114.22 313.00,115.56 C313.00,116.90 312.52,118.00 311.94,118.00 C311.36,118.00 311.20,118.51 311.59,119.14 C311.97,119.76 312.41,123.86 312.57,128.24 C312.84,136.15 314.38,142.00 316.18,142.00 C316.70,142.00 316.86,142.42 316.54,142.93 C316.23,143.44 316.83,144.13 317.89,144.46 C318.94,144.80 320.07,146.15 320.40,147.47 C320.73,148.78 321.57,150.45 322.26,151.18 C322.95,151.91 324.63,153.85 326.01,155.50 C327.38,157.15 329.62,158.66 331.00,158.85 C332.38,159.04 335.95,160.35 338.95,161.76 C341.95,163.18 345.66,164.33 347.20,164.33 C348.74,164.33 350.00,164.69 350.00,165.14 C350.00,165.58 352.13,165.84 354.73,165.72 C358.92,165.52 359.57,165.18 360.44,162.70 C361.78,158.87 360.11,156.40 356.46,156.81 C354.94,156.98 353.38,156.61 353.00,155.99 C352.61,155.37 350.32,154.65 347.90,154.39 C340.70,153.62 337.08,152.05 335.52,149.03 C334.72,147.49 332.94,145.95 331.55,145.60 C328.98,144.96 325.51,139.82 326.79,138.55 C327.18,138.16 326.78,137.31 325.91,136.67 C323.52,134.90 319.00,127.31 319.00,125.05 C319.00,122.69 322.53,115.63 324.56,113.95 C325.34,113.30 326.45,111.05 327.02,108.94 C327.98,105.38 329.43,104.17 333.69,103.41 C334.34,103.29 337.17,100.99 339.99,98.29 C344.81,93.67 345.04,93.23 344.00,90.49 C343.39,88.90 340.87,85.43 338.40,82.79 C335.92,80.14 334.17,77.53 334.51,76.99 C334.84,76.44 334.42,76.00 333.56,76.00 C332.70,76.00 332.00,75.55 332.00,75.00 C332.00,74.45 331.33,74.00 330.50,74.00 C329.67,74.00 329.00,73.55 329.00,73.00 C329.00,72.45 327.38,72.00 325.40,72.00 C323.31,72.00 320.53,71.09 318.75,69.82 C314.96,67.12 305.22,66.26 304.34,68.55 C303.59,70.52 294.43,70.57 293.68,68.61 C293.38,67.83 291.28,67.05 288.85,66.81 C285.21,66.47 284.11,66.83 281.63,69.20 C278.84,71.87 277.41,72.41 273.97,72.09 C272.61,71.96 268.01,75.71 259.75,83.68 C258.24,85.14 257.00,87.11 257.00,88.06 C257.00,89.01 255.35,91.24 253.33,93.01 C251.15,94.93 249.56,97.30 249.41,98.87 C248.79,105.28 246.43,113.00 245.08,113.00 C244.70,113.00 243.59,115.36 242.61,118.25 C241.00,122.96 240.61,124.17 239.83,126.76 C239.71,127.17 238.91,128.26 238.06,129.18 C237.20,130.10 235.42,133.59 234.10,136.93 C231.35,143.88 230.21,145.13 226.92,144.76 C225.02,144.55 224.47,145.07 224.03,147.46 C223.70,149.31 222.55,150.88 221.00,151.62 C216.43,153.80 208.02,155.84 207.44,154.91 C206.61,153.56 202.23,153.81 201.76,155.23 C201.53,155.91 201.71,157.59 202.15,158.98 C202.58,160.37 203.20,162.78 203.52,164.35 ZM 308.88 112.40 C308.95,112.90 309.91,112.49 311.02,111.48 C312.57,110.08 312.75,109.45 311.77,108.82 C310.77,108.17 310.82,107.79 312.00,107.00 C312.96,106.36 313.13,105.73 312.48,105.25 C311.91,104.84 310.67,103.26 309.70,101.75 C307.77,98.70 303.34,97.95 302.36,100.50 C302.04,101.35 300.42,102.06 298.64,102.13 L 295.50 102.26 L 298.98 102.88 C301.45,103.32 303.06,104.44 304.48,106.71 C305.59,108.48 307.06,109.94 307.75,109.96 C308.44,109.98 308.95,110.34 308.88,110.75 C308.82,111.16 308.82,111.91 308.88,112.40 ZM 275.20 137.80 C276.13,138.73 275.87,139.00 274.00,139.00 C272.13,139.00 271.87,138.73 272.80,137.80 C273.73,136.87 274.27,136.87 275.20,137.80 Z" fill="rgb(254,254,254)"/>
<path d="M 277.95 116.00 C263.09,116.00 259.88,116.26 258.57,117.57 C257.71,118.44 257.00,118.72 257.00,118.19 C257.00,115.40 260.58,114.53 272.39,114.45 C295.47,114.29 296.00,114.24 296.00,112.00 C296.00,110.27 295.33,110.00 291.12,110.00 C288.01,110.00 285.80,109.46 285.00,108.50 C284.21,107.55 284.15,107.00 284.82,107.00 C285.40,107.00 286.16,107.45 286.50,108.00 C286.84,108.55 289.10,109.00 291.52,109.00 C294.95,109.00 296.17,109.46 297.03,111.06 C299.38,115.45 297.26,116.00 277.95,116.00 ZM 283.00 142.00 C283.00,142.55 280.52,143.00 277.50,143.00 C274.48,143.00 272.00,142.55 272.00,142.00 C272.00,141.45 274.48,141.00 277.50,141.00 C280.52,141.00 283.00,141.45 283.00,142.00 ZM 359.83 160.14 C359.57,162.00 358.79,162.57 356.15,162.82 C353.95,163.03 353.02,162.77 353.46,162.07 C353.82,161.48 355.24,161.00 356.62,161.00 C357.99,161.00 358.86,160.58 358.54,160.07 C358.23,159.56 358.46,158.83 359.07,158.46 C359.78,158.02 360.05,158.62 359.83,160.14 ZM 294.00 141.94 C292.53,142.95 283.19,143.48 284.16,142.51 C284.43,142.24 287.09,141.77 290.08,141.47 C293.95,141.08 295.07,141.21 294.00,141.94 ZM 280.31 104.07 C280.95,106.52 279.44,107.57 278.61,105.24 C278.28,104.28 277.74,102.94 277.42,102.25 C277.04,101.45 277.37,101.20 278.32,101.57 C279.13,101.88 280.03,103.01 280.31,104.07 ZM 210.50 162.00 C210.16,162.55 209.04,163.00 208.00,163.00 C206.96,163.00 205.84,162.55 205.50,162.00 C205.14,161.42 206.18,161.00 208.00,161.00 C209.82,161.00 210.86,161.42 210.50,162.00 ZM 316.00 120.50 C316.00,121.32 315.55,122.00 315.00,122.00 C314.45,122.00 314.00,121.32 314.00,120.50 C314.00,119.68 314.45,119.00 315.00,119.00 C315.55,119.00 316.00,119.68 316.00,120.50 Z" fill="rgb(232,232,232)"/>
<path d="M 203.52 164.35 C203.20,162.78 202.58,160.37 202.15,158.98 C201.71,157.59 201.53,155.91 201.76,155.23 C202.23,153.81 206.61,153.56 207.44,154.91 C208.02,155.84 216.43,153.80 221.00,151.62 C222.55,150.88 223.70,149.31 224.03,147.46 C224.47,145.07 225.02,144.55 226.92,144.76 C230.21,145.13 231.35,143.88 234.10,136.93 C235.42,133.59 237.20,130.10 238.06,129.18 C238.91,128.26 239.71,127.17 239.83,126.76 C240.61,124.17 241.00,122.96 242.61,118.25 C243.59,115.36 244.70,113.00 245.08,113.00 C246.43,113.00 248.79,105.28 249.41,98.87 C249.56,97.30 251.15,94.93 253.33,93.01 C255.35,91.24 257.00,89.01 257.00,88.06 C257.00,87.11 258.24,85.14 259.75,83.68 C268.01,75.71 272.61,71.96 273.97,72.09 C277.41,72.41 278.84,71.87 281.63,69.20 C284.11,66.83 285.21,66.47 288.85,66.81 C291.28,67.05 293.38,67.83 293.68,68.61 C294.43,70.57 303.59,70.52 304.34,68.55 C305.22,66.26 314.96,67.12 318.75,69.82 C320.53,71.09 323.31,72.00 325.40,72.00 C327.38,72.00 329.00,72.45 329.00,73.00 C329.00,73.55 329.67,74.00 330.50,74.00 C331.33,74.00 332.00,74.45 332.00,75.00 C332.00,75.55 332.70,76.00 333.56,76.00 C334.42,76.00 334.84,76.44 334.51,76.99 C334.17,77.53 335.92,80.14 338.40,82.79 C340.87,85.43 343.39,88.90 344.00,90.49 C345.04,93.23 344.81,93.67 339.99,98.29 C337.17,100.99 334.34,103.29 333.69,103.41 C329.43,104.17 327.98,105.38 327.02,108.94 C326.45,111.05 325.34,113.30 324.56,113.95 C322.53,115.63 319.00,122.69 319.00,125.05 C319.00,127.31 323.52,134.90 325.91,136.67 C326.78,137.31 327.18,138.16 326.79,138.55 C325.51,139.82 328.98,144.96 331.55,145.60 C332.94,145.95 334.72,147.49 335.52,149.03 C337.08,152.05 340.70,153.62 347.90,154.39 C350.32,154.65 352.61,155.37 353.00,155.99 C353.38,156.61 354.94,156.98 356.46,156.81 C360.11,156.40 361.78,158.87 360.44,162.70 C359.57,165.18 358.92,165.52 354.73,165.72 C352.13,165.84 350.00,165.58 350.00,165.14 C350.00,164.69 348.74,164.33 347.20,164.33 C345.66,164.33 341.95,163.18 338.95,161.76 C335.95,160.35 332.38,159.04 331.00,158.85 C329.62,158.66 327.38,157.15 326.01,155.50 C324.63,153.85 322.95,151.91 322.26,151.18 C321.57,150.45 320.73,148.78 320.40,147.47 C320.07,146.15 318.94,144.80 317.89,144.46 C316.83,144.13 316.23,143.44 316.54,142.93 C316.86,142.42 316.70,142.00 316.18,142.00 C314.38,142.00 312.84,136.15 312.57,128.24 C312.41,123.86 311.97,119.76 311.59,119.14 C311.20,118.51 311.36,118.00 311.94,118.00 C312.52,118.00 313.00,116.90 313.00,115.56 C313.00,114.22 313.48,112.82 314.07,112.46 C314.66,112.09 314.89,111.17 314.60,110.40 C314.30,109.63 314.50,109.00 315.03,109.00 C315.56,109.00 316.00,108.25 316.00,107.33 C316.00,106.42 316.64,104.96 317.41,104.08 C320.38,100.76 324.95,96.42 327.67,94.33 C329.94,92.58 330.25,91.90 329.25,90.88 C328.56,90.17 328.00,88.79 328.00,87.80 C328.00,86.81 327.51,86.00 326.90,86.00 C326.30,86.00 324.52,84.63 322.96,82.95 C319.97,79.76 319.45,79.57 309.00,77.91 C297.06,76.00 292.84,75.76 291.70,76.90 C291.10,77.50 289.80,78.00 288.82,78.00 C285.40,78.00 279.20,81.13 278.68,83.13 C278.39,84.23 277.56,85.00 276.83,84.86 C274.92,84.48 269.86,87.39 267.30,90.35 C264.81,93.23 261.36,99.51 262.74,98.66 C263.23,98.36 264.27,98.98 265.04,100.05 C265.81,101.12 267.05,102.00 267.79,102.00 C268.83,102.00 268.78,102.36 267.57,103.57 C266.71,104.44 266.00,105.97 266.00,106.99 C266.00,108.01 265.73,109.55 265.39,110.42 C264.97,111.51 265.36,112.00 266.64,111.98 C269.65,111.96 270.92,110.63 271.18,107.21 C271.32,105.39 271.98,104.00 272.71,104.00 C273.42,104.00 273.91,103.66 273.80,103.25 C273.69,102.84 273.95,101.49 274.37,100.25 C275.28,97.56 278.54,97.28 281.17,99.65 C282.87,101.19 283.13,101.19 284.82,99.66 C287.42,97.31 290.50,99.59 289.79,103.32 C289.26,106.10 289.45,106.24 295.76,107.51 C300.21,108.40 301.66,111.71 299.59,116.25 C298.87,117.82 297.01,118.00 281.97,118.00 L 265.16 118.00 L 264.47 121.12 C264.02,123.17 264.21,124.51 265.01,125.00 C265.82,125.51 265.87,125.88 265.15,126.13 C264.45,126.37 264.39,127.03 264.99,128.00 C265.80,129.29 266.09,129.26 267.21,127.73 C268.53,125.93 273.53,124.33 272.47,126.05 C271.70,127.30 274.19,127.26 277.56,125.98 C279.45,125.26 280.64,125.29 281.60,126.08 C282.65,126.95 283.65,126.50 286.08,124.07 C288.56,121.59 289.51,121.18 290.61,122.09 C293.76,124.70 290.67,130.00 286.00,130.00 C282.85,130.00 280.09,132.64 280.73,135.06 C281.14,136.65 282.12,137.00 286.12,137.00 C288.80,137.00 291.00,136.55 291.00,136.00 C291.00,134.21 294.90,134.95 295.96,136.93 C297.43,139.67 297.27,140.73 295.06,142.94 C293.33,144.67 292.15,144.82 284.18,144.30 C276.85,143.82 274.82,144.02 272.90,145.36 L 270.55 147.00 L 274.22 147.00 C276.23,147.00 278.16,147.45 278.50,148.00 C278.85,148.57 283.87,149.00 290.12,149.00 L 301.13 149.00 L 303.70 145.95 C308.21,140.58 314.55,143.90 310.42,149.47 C309.04,151.33 307.90,151.43 291.06,151.14 C279.55,150.95 272.44,151.23 271.14,151.93 C269.66,152.72 268.41,152.69 266.52,151.83 C264.22,150.78 263.95,150.13 264.16,146.14 C264.31,143.27 263.94,141.48 263.16,141.22 C260.35,140.28 256.00,135.67 256.00,133.63 C256.00,132.43 256.74,130.39 257.65,129.09 C259.22,126.84 259.19,126.65 256.90,124.89 C253.89,122.57 253.19,122.55 253.36,124.75 C253.45,125.84 252.68,126.62 251.35,126.81 C249.18,127.12 246.64,131.48 247.09,134.13 C247.21,134.88 246.98,136.40 246.58,137.50 C244.42,143.33 243.87,144.17 242.54,143.65 C241.58,143.29 240.74,144.26 239.95,146.65 C239.20,148.91 237.55,150.92 235.39,152.20 C232.13,154.12 231.57,155.02 231.93,157.75 C232.06,158.80 230.54,159.14 226.49,158.98 C225.57,158.94 219.54,162.21 217.94,163.60 C217.08,164.35 214.82,165.16 212.91,165.41 C211.00,165.65 208.23,166.15 206.76,166.52 C204.40,167.12 204.02,166.86 203.52,164.35 ZM 210.50 162.00 C210.86,161.42 209.82,161.00 208.00,161.00 C206.18,161.00 205.14,161.42 205.50,162.00 C205.84,162.55 206.96,163.00 208.00,163.00 C209.04,163.00 210.16,162.55 210.50,162.00 ZM 359.83 160.14 C360.05,158.62 359.78,158.02 359.07,158.46 C358.46,158.83 358.23,159.56 358.54,160.07 C358.86,160.58 357.99,161.00 356.62,161.00 C355.24,161.00 353.82,161.48 353.46,162.07 C353.02,162.77 353.95,163.03 356.15,162.82 C358.79,162.57 359.57,162.00 359.83,160.14 ZM 283.00 142.00 C283.00,141.45 280.52,141.00 277.50,141.00 C274.48,141.00 272.00,141.45 272.00,142.00 C272.00,142.55 274.48,143.00 277.50,143.00 C280.52,143.00 283.00,142.55 283.00,142.00 ZM 294.00 141.94 C295.07,141.21 293.95,141.08 290.08,141.47 C287.09,141.77 284.43,142.24 284.16,142.51 C283.19,143.48 292.53,142.95 294.00,141.94 ZM 275.20 137.80 C274.27,136.87 273.73,136.87 272.80,137.80 C271.87,138.73 272.13,139.00 274.00,139.00 C275.87,139.00 276.13,138.73 275.20,137.80 ZM 316.00 120.50 C316.00,119.68 315.55,119.00 315.00,119.00 C314.45,119.00 314.00,119.68 314.00,120.50 C314.00,121.32 314.45,122.00 315.00,122.00 C315.55,122.00 316.00,121.32 316.00,120.50 ZM 277.95 116.00 C297.26,116.00 299.38,115.45 297.03,111.06 C296.17,109.46 294.95,109.00 291.52,109.00 C289.10,109.00 286.84,108.55 286.50,108.00 C286.16,107.45 285.40,107.00 284.82,107.00 C284.15,107.00 284.21,107.55 285.00,108.50 C285.80,109.46 288.01,110.00 291.12,110.00 C295.33,110.00 296.00,110.27 296.00,112.00 C296.00,114.24 295.47,114.29 272.39,114.45 C260.58,114.53 257.00,115.40 257.00,118.19 C257.00,118.72 257.71,118.44 258.57,117.57 C259.88,116.26 263.09,116.00 277.95,116.00 ZM 280.31 104.07 C280.03,103.01 279.13,101.88 278.32,101.57 C277.37,101.20 277.04,101.45 277.42,102.25 C277.74,102.94 278.28,104.28 278.61,105.24 C279.44,107.57 280.95,106.52 280.31,104.07 ZM 308.88 112.40 C308.82,111.91 308.82,111.16 308.88,110.75 C308.95,110.34 308.44,109.98 307.75,109.96 C307.06,109.94 305.59,108.48 304.48,106.71 C303.06,104.44 301.45,103.32 298.98,102.88 L 295.50 102.26 L 298.64 102.13 C300.42,102.06 302.04,101.35 302.36,100.50 C303.34,97.95 307.77,98.70 309.70,101.75 C310.67,103.26 311.91,104.84 312.48,105.25 C313.13,105.73 312.96,106.36 312.00,107.00 C310.82,107.79 310.77,108.17 311.77,108.82 C312.75,109.45 312.57,110.08 311.02,111.48 C309.91,112.49 308.95,112.90 308.88,112.40 Z" fill="rgb(251,251,251)"/>
</g>
</svg>